# xmcd
#
# Track frame offsets:
#	150
#	20281
#	49189
#	70281
#	91631
#	116144
#	141054
#	162996
#	184792
#	224971
#	243542
#	262628
#
# Disc length: 3767 seconds
#
# Revision: 14
# Processed by: cddbd v1.5.2PL0 Copyright (c) Steve Scherf et al.
# Submitted via: Jack! The Knife 20 Magnifico
#
DISCID=a90eb50c
DTITLE=Accept - Eat The Heat
DYEAR=1989
DGENRE=Metal
TTITLE0=X-T-C
TTITLE1=Generation Clash
TTITLE2=Chain Reaction
TTITLE3=Love Sensation
TTITLE4=Turn The Wheel
TTITLE5=Hellhammer
TTITLE6=Prisoner
TTITLE7=I Can't Believe In You
TTITLE8=Mistreated
TTITLE9=Stand 4 What U R
TTITLE10=Break The Ice
TTITLE11=D-Train
EXTD=Dieter Dierks
EXTT0=Accept, Deaffy
EXTT1=Accept, Deaffy
EXTT2=Accept, Deaffy
EXTT3=Accept, Deaffy
EXTT4=Accept, Deaffy
EXTT5=Accept, Deaffy
EXTT6=Accept, Deaffy
EXTT7=Accept, Deaffy
EXTT8=Accept, Deaffy
EXTT9=Accept, Deaffy
EXTT10=Accept, Deaffy
EXTT11=Accept, Deaffy
PLAYORDER=
